# xmcd
#
# Track frame offsets: 
#        150
#        8892
#        25033
#        47904
#        60934
#        76205
#        87713
#        98329
#        108579
#        119718
#        134256
#        152883
#        165604
#        177938
#        194419
#        205967
#        214466
#        226387
#        239178
#        255984
#
# Disc length: 3712 seconds
#
# Revision: 1
# Processed by: cddbd v1.5.2PL0 Copyright (c) Steve Scherf et al.
# Submitted via: ExactAudioCopy v1.1
#
DISCID=170e7e14
DTITLE=Ray Charles - The Very Best Of - CD1
DYEAR=1900
DGENRE=
TTITLE0=Hit The Road Jack
TTITLE1=Georgia On My Mind
TTITLE2=What'd I Say (Part 1&2)
TTITLE3=I Got A Woman
TTITLE4=Sinner's Prayer
TTITLE5=Hallelujah, I Love Her So
TTITLE6=Sittin' On The Top Of The World
TTITLE7=Swanee River Rock
TTITLE8=You Be My Baby
TTITLE9=Funny But I Still Love You
TTITLE10=The Right Time
TTITLE11=Feelin' Sad
TTITLE12=Basin' Street Blues
TTITLE13=Come Rain Or Come Shine
TTITLE14=What Would I Do Without You
TTITLE15=Alabamy Bound
TTITLE16=Nobody Cares
TTITLE17=Heartbraker
TTITLE18=Hot Rod
TTITLE19=Precious Thing (Till The Next ... Somewhere
EXTD=
EXTT0=
EXTT1=
EXTT2=
EXTT3=
EXTT4=
EXTT5=
EXTT6=
EXTT7=
EXTT8=
EXTT9=
EXTT10=
EXTT11=
EXTT12=
EXTT13=
EXTT14=
EXTT15=
EXTT16=
EXTT17=
EXTT18=
EXTT19=
PLAYORDER=
